#N canvas 0 0 450 300 12;
#X obj 5 85 print;
#X obj 5 45 cljpd.count-until;
#X msg 5 5 0;
#X msg 152 5 3;
#X msg 194 5 5;
#X msg 236 5 7;
#X connect 1 0 0 0;
#X connect 2 0 1 0;
#X connect 3 0 1 0;
#X connect 4 0 1 0;
#X connect 5 0 1 0;