#N canvas 0 0 148 126 12;
#X obj 32 32 bng 15 250 50 0 ignored15 patchbay-in-bang-in-1 in-1 -32 7 0 10 -262144 -1 -1;
#X obj 32 74 bng 15 250 50 0 ignored16 patchbay-in-bang-in-2 in-2 -32 7 0 10 -262144 -1 -1;
#X obj 32 95 bng 15 250 50 0 ignored17 patchbay-in-bang-in-3 in-3 -32 7 0 10 -262144 -1 -1;
#X obj 100 63 bng 15 250 50 0 ignored18 patchbay-out-bang-out-1 out-1 17 7 0 10 -262144 -1 -1;
#X obj 100 105 bng 15 250 50 0 ignored19 patchbay-out-bang-out-2 out-2 17 7 0 10 -262144 -1 -1;
#X msg 1174 171  \; ignored14 0 0 0 0 0 0;
#X obj 80 0 bng 15 250 50 0 empty empty clear 17 7 0 10 -262144 -1 -1;
#X obj 0 0 cnv 0 0 0 empty ui-cnv-0-0-0 empty 20 12 0 14 -197649 -66577 -1;
#X obj 0 0 cnv 0 0 0 empty ui-cnv-0-0-1 empty 20 12 0 14 -197649 -66577 -1;
#X obj 0 0 cnv 0 0 0 empty ui-cnv-0-0-2 empty 20 12 0 14 -197649 -66577 -1;
#X obj 0 0 cnv 0 0 0 empty ui-cnv-0-1-0 empty 20 12 0 14 -197649 -66577 -1;
#X obj 0 0 cnv 0 0 0 empty ui-cnv-0-1-1 empty 20 12 0 14 -197649 -66577 -1;
#X obj 0 0 cnv 0 0 0 empty ui-cnv-0-1-2 empty 20 12 0 14 -197649 -66577 -1;
#X obj 0 0 cnv 0 0 0 empty ui-cnv-1-0-0 empty 20 12 0 14 -199697 -66577 -1;
#X obj 0 0 cnv 0 0 0 empty ui-cnv-1-0-1 empty 20 12 0 14 -199697 -66577 -1;
#X obj 0 0 cnv 0 0 0 empty ui-cnv-1-0-2 empty 20 12 0 14 -199697 -66577 -1;
#X obj 0 0 cnv 0 0 0 empty ui-cnv-1-1-0 empty 20 12 0 14 -199697 -66577 -1;
#X obj 0 0 cnv 0 0 0 empty ui-cnv-1-1-1 empty 20 12 0 14 -199697 -66577 -1;
#X obj 0 0 cnv 0 0 0 empty ui-cnv-1-1-2 empty 20 12 0 14 -199697 -66577 -1;
#X obj 0 0 cnv 0 0 0 empty ui-cnv-2-0-0 empty 20 12 0 14 -68625 -66577 -1;
#X obj 0 0 cnv 0 0 0 empty ui-cnv-2-0-1 empty 20 12 0 14 -68625 -66577 -1;
#X obj 0 0 cnv 0 0 0 empty ui-cnv-2-0-2 empty 20 12 0 14 -68625 -66577 -1;
#X obj 0 0 cnv 0 0 0 empty ui-cnv-2-1-0 empty 20 12 0 14 -68625 -66577 -1;
#X obj 0 0 cnv 0 0 0 empty ui-cnv-2-1-1 empty 20 12 0 14 -68625 -66577 -1;
#X obj 0 0 cnv 0 0 0 empty ui-cnv-2-1-2 empty 20 12 0 14 -68625 -66577 -1;
#X msg 5 411  \; ui-cnv-0-0-0 pos 48 37  \; ui-cnv-0-0-0 vis_size 4 2  \; ui-cnv-0-0-1 pos 52 37  \; ui-cnv-0-0-1 vis_size 2 33  \; ui-cnv-0-0-2 pos 52 68  \; ui-cnv-0-0-2 vis_size 47 2;
#X obj 5 371 select 1;
#X msg 180 411  \; ui-cnv-1-0-0 pos 48 79  \; ui-cnv-1-0-0 vis_size 8 2  \; ui-cnv-1-0-1 pos 56 68  \; ui-cnv-1-0-1 vis_size 2 13  \; ui-cnv-1-0-2 pos 56 68  \; ui-cnv-1-0-2 vis_size 43 2;
#X obj 180 371 select 1;
#X msg 355 411  \; ui-cnv-2-0-0 pos 48 100  \; ui-cnv-2-0-0 vis_size 12 2  \; ui-cnv-2-0-1 pos 60 68  \; ui-cnv-2-0-1 vis_size 2 34  \; ui-cnv-2-0-2 pos 60 68  \; ui-cnv-2-0-2 vis_size 39 2;
#X obj 355 371 select 1;
#X msg 180 411  \; ui-cnv-0-1-0 pos 48 37  \; ui-cnv-0-1-0 vis_size 4 2  \; ui-cnv-0-1-1 pos 52 37  \; ui-cnv-0-1-1 vis_size 2 75  \; ui-cnv-0-1-2 pos 52 110  \; ui-cnv-0-1-2 vis_size 47 2;
#X obj 180 371 select 1;
#X msg 355 411  \; ui-cnv-1-1-0 pos 48 79  \; ui-cnv-1-1-0 vis_size 8 2  \; ui-cnv-1-1-1 pos 56 79  \; ui-cnv-1-1-1 vis_size 2 33  \; ui-cnv-1-1-2 pos 56 110  \; ui-cnv-1-1-2 vis_size 43 2;
#X obj 355 371 select 1;
#X msg 530 411  \; ui-cnv-2-1-0 pos 48 100  \; ui-cnv-2-1-0 vis_size 12 2  \; ui-cnv-2-1-1 pos 60 100  \; ui-cnv-2-1-1 vis_size 2 12  \; ui-cnv-2-1-2 pos 60 110  \; ui-cnv-2-1-2 vis_size 39 2;
#X obj 530 371 select 1;
#X msg 180 411  \; ui-cnv-0-0-0 pos 0 0 \; ui-cnv-0-0-0 vis_size 0 0  \; ui-cnv-0-0-1 pos 0 0 \; ui-cnv-0-0-1 vis_size 0 0  \; ui-cnv-0-0-2 pos 0 0 \; ui-cnv-0-0-2 vis_size 0 0;
#X obj 180 371 select 0;
#X msg 355 411  \; ui-cnv-1-0-0 pos 0 0 \; ui-cnv-1-0-0 vis_size 0 0  \; ui-cnv-1-0-1 pos 0 0 \; ui-cnv-1-0-1 vis_size 0 0  \; ui-cnv-1-0-2 pos 0 0 \; ui-cnv-1-0-2 vis_size 0 0;
#X obj 355 371 select 0;
#X msg 530 411  \; ui-cnv-2-0-0 pos 0 0 \; ui-cnv-2-0-0 vis_size 0 0  \; ui-cnv-2-0-1 pos 0 0 \; ui-cnv-2-0-1 vis_size 0 0  \; ui-cnv-2-0-2 pos 0 0 \; ui-cnv-2-0-2 vis_size 0 0;
#X obj 530 371 select 0;
#X msg 355 411  \; ui-cnv-0-1-0 pos 0 0 \; ui-cnv-0-1-0 vis_size 0 0  \; ui-cnv-0-1-1 pos 0 0 \; ui-cnv-0-1-1 vis_size 0 0  \; ui-cnv-0-1-2 pos 0 0 \; ui-cnv-0-1-2 vis_size 0 0;
#X obj 355 371 select 0;
#X msg 530 411  \; ui-cnv-1-1-0 pos 0 0 \; ui-cnv-1-1-0 vis_size 0 0  \; ui-cnv-1-1-1 pos 0 0 \; ui-cnv-1-1-1 vis_size 0 0  \; ui-cnv-1-1-2 pos 0 0 \; ui-cnv-1-1-2 vis_size 0 0;
#X obj 530 371 select 0;
#X msg 705 411  \; ui-cnv-2-1-0 pos 0 0 \; ui-cnv-2-1-0 vis_size 0 0  \; ui-cnv-2-1-1 pos 0 0 \; ui-cnv-2-1-1 vis_size 0 0  \; ui-cnv-2-1-2 pos 0 0 \; ui-cnv-2-1-2 vis_size 0 0;
#X obj 705 371 select 0;
#X obj 1979 211 unpack f f f f f f;
#X obj 1979 171 route list bang;
#X obj 1979 131 r ignored14;
#X obj 355 411 s ignored13;
#X obj 355 371 pack f f f f f f;
#X obj 530 451 throw~ patchbay-out-out-1;
#X obj 530 411 +~;
#X obj 530 371 *~;
#X obj 2322 131 catch~ patchbay-in-in-1;
#X obj 5 331 cljpd.toggle;
#X obj 5 291 unpack f f f;
#X obj 5 251 route 0 1;
#X obj 5 211 list;
#X msg 1020 171 0 0 1;
#X msg 950 171 0 1 0;
#X msg 5 171 1 0 0;
#X msg 1090 171 0;
#X msg 1132 171 1;
#X msg 1979 291 0;
#X obj 1979 251 t b f;
#X obj 705 371 *~;
#X obj 2490 131 catch~ patchbay-in-in-2;
#X obj 180 331 cljpd.toggle;
#X msg 2112 291 0;
#X obj 2112 251 t b f;
#X obj 880 371 *~;
#X obj 2658 131 catch~ patchbay-in-in-3;
#X obj 355 331 cljpd.toggle;
#X msg 2154 291 0;
#X obj 2154 251 t b f;
#X obj 705 451 throw~ patchbay-out-out-2;
#X obj 705 411 +~;
#X obj 705 371 *~;
#X obj 180 331 cljpd.toggle;
#X obj 180 291 unpack f f f;
#X msg 2196 291 0;
#X obj 2196 251 t b f;
#X obj 880 371 *~;
#X obj 355 331 cljpd.toggle;
#X msg 2238 291 0;
#X obj 2238 251 t b f;
#X obj 915 371 *~;
#X obj 530 331 cljpd.toggle;
#X msg 2280 291 0;
#X obj 2280 251 t b f;
#X connect 0 0 64 0;
#X connect 1 0 63 0;
#X connect 2 0 62 0;
#X connect 3 0 65 0;
#X connect 4 0 66 0;
#X connect 6 0 5 0;
#X connect 26 0 25 0;
#X connect 28 0 27 0;
#X connect 30 0 29 0;
#X connect 32 0 31 0;
#X connect 34 0 33 0;
#X connect 36 0 35 0;
#X connect 38 0 37 0;
#X connect 40 0 39 0;
#X connect 42 0 41 0;
#X connect 44 0 43 0;
#X connect 46 0 45 0;
#X connect 48 0 47 0;
#X connect 49 0 68 0;
#X connect 49 1 73 0;
#X connect 49 2 78 0;
#X connect 49 3 85 0;
#X connect 49 4 89 0;
#X connect 49 5 93 0;
#X connect 50 0 49 0;
#X connect 50 1 67 0;
#X connect 50 1 72 0;
#X connect 50 1 77 0;
#X connect 50 1 84 0;
#X connect 50 1 88 0;
#X connect 50 1 92 0;
#X connect 51 0 50 0;
#X connect 53 0 52 0;
#X connect 55 0 54 0;
#X connect 56 0 55 0;
#X connect 57 0 56 0;
#X connect 57 0 81 0;
#X connect 58 0 26 0;
#X connect 58 0 38 0;
#X connect 58 0 53 0;
#X connect 58 0 56 1;
#X connect 59 0 58 0;
#X connect 59 1 71 0;
#X connect 59 2 76 0;
#X connect 60 0 59 0;
#X connect 60 1 83 0;
#X connect 61 0 60 0;
#X connect 62 0 61 1;
#X connect 63 0 61 1;
#X connect 64 0 61 1;
#X connect 65 0 61 0;
#X connect 66 0 61 0;
#X connect 67 0 58 0;
#X connect 68 0 67 0;
#X connect 68 1 58 1;
#X connect 69 0 55 0;
#X connect 70 0 69 0;
#X connect 70 0 86 0;
#X connect 71 0 28 0;
#X connect 71 0 40 0;
#X connect 71 0 53 1;
#X connect 71 0 69 1;
#X connect 72 0 71 0;
#X connect 73 0 72 0;
#X connect 73 1 71 1;
#X connect 74 0 55 0;
#X connect 75 0 74 0;
#X connect 75 0 90 0;
#X connect 76 0 30 0;
#X connect 76 0 42 0;
#X connect 76 0 53 2;
#X connect 76 0 74 1;
#X connect 77 0 76 0;
#X connect 78 0 77 0;
#X connect 78 1 76 1;
#X connect 80 0 79 0;
#X connect 81 0 80 0;
#X connect 82 0 32 0;
#X connect 82 0 44 0;
#X connect 82 0 53 3;
#X connect 82 0 81 1;
#X connect 83 0 82 0;
#X connect 83 1 87 0;
#X connect 83 2 91 0;
#X connect 84 0 82 0;
#X connect 85 0 84 0;
#X connect 85 1 82 1;
#X connect 86 0 80 0;
#X connect 87 0 34 0;
#X connect 87 0 46 0;
#X connect 87 0 53 4;
#X connect 87 0 86 1;
#X connect 88 0 87 0;
#X connect 89 0 88 0;
#X connect 89 1 87 1;
#X connect 90 0 80 0;
#X connect 91 0 36 0;
#X connect 91 0 48 0;
#X connect 91 0 53 5;
#X connect 91 0 90 1;
#X connect 92 0 91 0;
#X connect 93 0 92 0;
#X connect 93 1 91 1;
#X coords 0 1 100 -1 148 126 1 0 0;