#N canvas 0 0 450 300 12;
#X obj 47 205 outlet;
#X obj 5 165 f 0;
#X obj 47 125 until;
#X obj 47 85 f 0;
#X obj 5 45 t b f;
#X obj 5 5 inlet;
#X obj 5 205 + 1;
#X obj 5 85 f 0;
#X connect 1 0 6 0;
#X connect 1 0 0 0;
#X connect 2 0 1 0;
#X connect 3 0 2 0;
#X connect 4 1 3 0;
#X connect 4 0 7 0;
#X connect 5 0 4 0;
#X connect 6 0 1 1;
#X connect 7 0 1 1;