#N canvas 0 0 450 300 12;
#X obj 0 0 inlet;
#X obj 100 0 inlet;
#X obj 5 85 t b f;
#X obj 5 45 moses 0;
#X obj 5 245 outlet;
#X obj 5 205 list split 1;
#X obj 5 165 list split;
#X obj 5 125 list;
#X connect 0 0 3 0;
#X connect 1 0 7 1;
#X connect 2 0 7 0;
#X connect 2 1 6 1;
#X connect 3 1 2 0;
#X connect 5 0 4 0;
#X connect 6 1 5 0;
#X connect 7 0 6 0;